# xmcd
#
# Track frame offsets:
#	150
#	13078
#	23174
#	35730
#	48557
#	56648
#	70562
#	83310
#	97423
#	109746
#	119643
#	135305
#	150115
#	162314
#	174067
#	186075
#	196259
#	210356
#	223974
#	236922
#	248948
#	261915
#	273394
#	285337
#	303778
#
# Disc length: 4239 seconds
#
# Revision: 0
# Processed by: cddbd v1.5.2PL0 Copyright (c) Steve Scherf et al.
# Submitted via: audiograbber 1.83.01
#
DISCID=59108d19
DTITLE=Various Artist - 50 of the most influential blues songs of the 20th century
DYEAR=1900
DGENRE=Blues
TTITLE0=Muddy Waters - I Just Want to Make Love to You
TTITLE1=Jimmy Reed - Ain't Loving You Baby
TTITLE2=Jimmy Reed - Big Boss Man
TTITLE3=Bo Diddley - Pretty Thing
TTITLE4=Chuck Berry - Let It Rock
TTITLE5=Slim Harpo - I'm a King Bee
TTITLE6=Slim Hapo - Got Love If You Want It
TTITLE7=Muddy Waters - Rollin' Stone
TTITLE8=Bo Diddley - Bo Diddley
TTITLE9=John Lee Hooker - Dimples
TTITLE10=Ray Charles - The Night Time Is the Right Time
TTITLE11=Bea Booze - See See Rider
TTITLE12=Billy Boy Arnold - I Wish You Would
TTITLE13=Ray Charles - Hallelujah I Love Her So
TTITLE14=Jimmy Reed - Bright Lights Big City
TTITLE15=Billy Boy Arnold - I Ain't Got You
TTITLE16=Howlin Wolf - Smokestack Lightning
TTITLE17=Sonny Boy Williamson No.1 - Good Morning Little Schoolgirl
TTITLE18=Muddy Waters - I Got My Mojo Working
TTITLE19=Chuck Berry - Johnny B. Goode
TTITLE20=Muddy Waters - I'm Your Hoochie Coochie Man
TTITLE21=Lowell Fulson - Everyday I Have the Blues
TTITLE22=Little Walter - My Babe
TTITLE23=Howlin' Wolf - Goin' Down Slow
TTITLE24=John Lee Hooker - Boogie Chillen
EXTD=
EXTT0=
EXTT1=
EXTT2=
EXTT3=
EXTT4=
EXTT5=
EXTT6=
EXTT7=
EXTT8=
EXTT9=
EXTT10=
EXTT11=
EXTT12=
EXTT13=
EXTT14=
EXTT15=
EXTT16=
EXTT17=
EXTT18=
EXTT19=
EXTT20=
EXTT21=
EXTT22=
EXTT23=
EXTT24=
PLAYORDER=
